<svg xmlns="http://www.w3.org/2000/svg" viewBox="0 0 128 128" style="enable-background:new 0 0 128 128" xml:space="preserve"><path style="fill:#110f10" d="M70.307 80.23c-4.35-3.49-6.268 1.843-6.391 2.175-.012.012-.012.025-.012.025s-.049-.025-.135-.025c-.086 0-.135.025-.135.025s0-.012-.012-.025c-.123-.332-2.04-5.665-6.391-2.175-4.498 3.601-7.14 5.96-11.011 5.96 6.046 3.908 15.288 2.655 17.414-.787.049-.086.098-.16.135-.234.037.074.086.147.135.234 2.126 3.441 11.368 4.695 17.414.787-3.87.001-6.513-2.359-11.011-5.96zm0 0c-4.35-3.49-6.268 1.843-6.391 2.175-.012.012-.012.025-.012.025s-.049-.025-.135-.025c-.086 0-.135.025-.135.025s0-.012-.012-.025c-.123-.332-2.04-5.665-6.391-2.175-4.498 3.601-7.14 5.96-11.011 5.96 6.046 3.908 15.288 2.655 17.414-.787.049-.086.098-.16.135-.234.037.074.086.147.135.234 2.126 3.441 11.368 4.695 17.414.787-3.87.001-6.513-2.359-11.011-5.96zm0 0c-4.35-3.49-6.268 1.843-6.391 2.175-.012.012-.012.025-.012.025s-.049-.025-.135-.025c-.086 0-.135.025-.135.025s0-.012-.012-.025c-.123-.332-2.04-5.665-6.391-2.175-4.498 3.601-7.14 5.96-11.011 5.96 6.046 3.908 15.288 2.655 17.414-.787.049-.086.098-.16.135-.234.037.074.086.147.135.234 2.126 3.441 11.368 4.695 17.414.787-3.87.001-6.513-2.359-11.011-5.96zm34.755-27.885c-.393-2.102-1.241-3.552-2.495-4.314-.799-.479-1.499-.701-2.114-.75l1.167-3.331s3.171-12.56-2.298-23.682C93.866 9.147 78.996 3.211 65.477.422c-13.506-2.777-42.829 9.021-29.52 10.36 4.928.492-9.967 5.272-12.843 10.741-1.659 3.134 1.512 15.682 4.498 25.759-.614.049-1.327.27-2.126.75-1.254.762-2.102 2.212-2.495 4.314-1.352 7.03 2.433 20.302 6.354 25.476.688.922 1.512 1.88 2.372 2.495.332 11.896 2.249 28.536 9.967 34.89 10.262 8.443 18.815 11.724 21.605 12.634.184.061.344.111.479.16.135-.049.295-.098.479-.16 2.79-.909 11.343-4.191 21.605-12.634 7.656-6.305 9.598-22.699 9.955-34.571 1.069-.541 2.065-1.72 2.9-2.814 3.922-5.174 7.707-18.447 6.355-25.477zM45.642 26.5c10.446 2.777 16.947 5.371 16.947 5.371s8.652-2.593 19.098-5.371 10.016 11.896 8.431 17.255c1.389 2.212 2.63 8.775 3.306 13.088h-2.261c-1.303-5.383-6.169-9.402-11.946-9.402-5.788 0-10.655 4.019-11.97 9.402h-7.153c-1.315-5.383-6.182-9.402-11.97-9.402-5.776 0-10.643 4.019-11.958 9.402h-2.102c.614-4.314 1.757-10.876 3.134-13.088-1.572-5.358-2.014-20.032 8.444-17.255zm43.432 33.256c0 5.444-4.424 9.856-9.856 9.856s-9.856-4.412-9.856-9.856c0-5.432 4.424-9.856 9.856-9.856s9.856 4.424 9.856 9.856zm-31.093 0a9.855 9.855 0 0 1-9.856 9.856c-5.432 0-9.856-4.412-9.856-9.856 0-5.432 4.424-9.856 9.856-9.856 5.444 0 9.856 4.424 9.856 9.856zm38.773 16.579c-.332.442-.627.787-.885 1.069.062-5.96-.246-6.464-.246-6.464h-1.635s.369 2.667-7.312 13.715C83.463 89.282 73.617 97.74 63.77 97.74s-19.694-8.458-22.908-13.085C33.181 73.607 33.55 70.94 33.55 70.94h-1.635s-.295.221-.258 5.862c-.111-.147-.234-.295-.356-.467-3.552-4.682-7.116-17.169-5.899-23.522.258-1.377.737-2.298 1.352-2.679.651-.393 1.155-.504 1.487-.332a.567.567 0 0 1 .172.123 361.538 361.538 0 0 0 3.515 10.901h1.635c0-.061.061-.627.172-1.524h2.089c0 .16-.012.307-.012.455 0 6.796 5.53 12.314 12.314 12.314 6.796 0 12.314-5.518 12.314-12.314v-.455h6.477c-.012.16-.012.307-.012.455 0 6.796 5.518 12.314 12.314 12.314 6.784 0 12.314-5.518 12.314-12.314 0-.147-.012-.295-.012-.455h2.274c.123.897.197 1.462.197 1.524h1.696l2.753-7.853 1.02-2.888c.123-.123.234-.221.356-.283.332-.172.836-.061 1.487.332.614.381 1.094 1.303 1.352 2.679 1.214 6.353-2.35 18.839-5.902 23.522zM38.89 45.912s6.282-5.793 12.556-4.791 5.909 5.306 5.909 5.306-8.266-3.821-18.465-.515zm31.097.515s-.366-4.304 5.909-5.306c6.275-1.002 12.556 4.791 12.556 4.791-10.199-3.306-18.465.515-18.465.515z"/></svg>